<svg xmlns="http://www.w3.org/2000/svg" viewBox="0 0 144 144"><defs><style>.cls-1{fill:#fff;opacity:0.01;}.cls-2{fill:#808081;}</style></defs><title>Icon-Link-Open</title><g id="Layer_2" data-name="Layer 2"><g id="Layer_1-2" data-name="Layer 1"><rect class="cls-1" width="144" height="144"/><path class="cls-2" d="M48,95.9c3.68,3.69,11-3.68,11-3.68L92.19,59S99.55,51.64,95.87,48s-11.05,3.69-11.05,3.69L51.67,84.84S44.31,92.22,48,95.9Zm84.43-62.06a4.91,4.91,0,0,1,1.33,2.37,5.1,5.1,0,0,1-1.46,4.8L96.81,76.41l1.83,1.83c7.15,7.16,13.54-2.34,22.34-11.16l17.33-17.49c8.81-8.82,6.45-18-.7-25.14l-18-18c-7.15-7.16-16.29-9.52-25.1-.7L77,23.05c-8.8,8.82-18.29,15.21-11.14,22.38l1.82,1.82,35.35-35.52a5.1,5.1,0,0,1,4.79-1.47,5,5,0,0,1,2.37,1.34ZM11.58,110.16a4.91,4.91,0,0,1-1.33-2.37,5.1,5.1,0,0,1,1.46-4.8l35.48-35.4-1.83-1.83C38.21,58.6,31.82,68.1,23,76.92L5.69,94.41c-8.81,8.82-6.45,18,.7,25.14l18,18c7.15,7.16,16.29,9.52,25.1.7L67,121c8.8-8.82,18.29-15.21,11.14-22.38L76.3,96.75,41,132.27a5.1,5.1,0,0,1-4.79,1.47,5,5,0,0,1-2.37-1.34Z"/></g></g></svg>