<svg xmlns="http://www.w3.org/2000/svg" viewBox="0 0 384.56 377.76"><defs><style>.cls-1{fill:#5e698a;}.cls-2{fill:#2b2b2b;}</style></defs><g id="Layer_2" data-name="Layer 2"><g id="Letters"><polygon class="cls-1" points="220.12 214.59 0 148.91 0 165.33 220.12 231.01 220.12 214.59"/><path class="cls-1" d="M23,260.64a29.26,29.26,0,0,1-2.71,12.42,88.32,88.32,0,0,1-7.11,12.43Q8.82,292,0,297.27v80.49H220.12V297.27a42.94,42.94,0,0,1-13.89-12.76,84.83,84.83,0,0,1-7.11-12.1,29.21,29.21,0,0,1-2-11.77h0L23,208.7Z"/><path class="cls-1" d="M43.35,95.44a105.94,105.94,0,0,0-9.2-15.88,64.13,64.13,0,0,0-9.69-11.24V24.46h171.2V68.23a56.62,56.62,0,0,0-9,10.36,111.78,111.78,0,0,0-9.06,15.88,53.88,53.88,0,0,0-5,22.65v47l24.46,7.29V117.12a29.26,29.26,0,0,1,2.71-12.42,88.32,88.32,0,0,1,7.11-12.43q4.4-6.54,13.21-11.78V0H0V80.49A42.81,42.81,0,0,1,13.88,93.25,85.85,85.85,0,0,1,21,105.35c.31.72.6,6,.84,13.8l24.65,7.36C45.93,101.27,45.24,99.69,43.35,95.44Z"/><path class="cls-2" d="M304.53,11.37h-15V60.65c0,2.83-.63,4.94-1.9,6.31a6.35,6.35,0,0,1-4.9,2.06,6.49,6.49,0,0,1-5-2.08c-1.28-1.39-1.92-3.48-1.92-6.29V11.37h-15a7.64,7.64,0,0,1-5.23-1.55,5.3,5.3,0,0,1-1.71-4.1,5.22,5.22,0,0,1,1.78-4.16A7.74,7.74,0,0,1,260.81,0h43.72a7.71,7.71,0,0,1,5.3,1.57,5.29,5.29,0,0,1,1.74,4.12,5.21,5.21,0,0,1-1.76,4.1A7.81,7.81,0,0,1,304.53,11.37Z"/><path class="cls-2" d="M342.64,57.64,331.77,14.42V61.25q0,3.89-1.74,5.83a6.36,6.36,0,0,1-9,.14l-.14-.14c-1.18-1.28-1.76-3.23-1.76-5.85V7.57q0-4.44,2.31-6A11.15,11.15,0,0,1,327.7,0H332a16.43,16.43,0,0,1,5.58.69,4.67,4.67,0,0,1,2.57,2.5A39.14,39.14,0,0,1,342,9.09l9.85,37.16,9.86-37.16a40.27,40.27,0,0,1,1.89-5.88,4.77,4.77,0,0,1,2.57-2.5A16.49,16.49,0,0,1,371.75,0H376a11.11,11.11,0,0,1,6.25,1.55q2.31,1.55,2.31,6V61.25c0,2.59-.57,4.53-1.73,5.83A6,6,0,0,1,378.18,69a5.78,5.78,0,0,1-4.49-1.94q-1.76-2-1.76-5.83V14.42L361.06,57.64c-.71,2.81-1.29,4.86-1.74,6.18a8.32,8.32,0,0,1-2.47,3.58,7.18,7.18,0,0,1-5,1.62,7.18,7.18,0,0,1-6.66-3.66,16,16,0,0,1-1.46-3.59C343.38,60.42,343,59.06,342.64,57.64Z"/></g></g></svg>