<svg xmlns="http://www.w3.org/2000/svg" viewBox="0 0 893.32 377.76"><defs><style>.cls-1{fill:#8d94aa;}</style></defs><g id="Layer_2" data-name="Layer 2"><g id="Letters"><polygon class="cls-1" points="220.12 214.59 0 148.91 0 165.33 220.12 231.01 220.12 214.59"/><path class="cls-1" d="M23,262.64a29.34,29.34,0,0,1-2.71,12.42,88.57,88.57,0,0,1-7.11,12.43Q8.81,294,0,299.27v80.49H220.12V299.27a42.88,42.88,0,0,1-13.89-12.76,85,85,0,0,1-7.11-12.1,29.3,29.3,0,0,1-2-11.77h0L23,210.7Z" transform="translate(0 -2)"/><path class="cls-1" d="M43.35,97.43a106.33,106.33,0,0,0-9.2-15.87,64,64,0,0,0-9.69-11.24V26.46h171.2V70.23a56.62,56.62,0,0,0-9,10.36,112.5,112.5,0,0,0-9.06,15.88,53.89,53.89,0,0,0-5,22.65v47l24.46,7.29V119.12a29.34,29.34,0,0,1,2.71-12.42,88,88,0,0,1,7.11-12.43q4.4-6.54,13.21-11.78V2H0V82.49A42.84,42.84,0,0,1,13.88,95.25,85.27,85.27,0,0,1,21,107.35c.31.72.6,6,.84,13.8l24.65,7.36C45.93,103.27,45.24,101.69,43.35,97.43Z" transform="translate(0 -2)"/><path class="cls-1" d="M417,339.44q-18.27,16.63-52.6,16.65-41,0-62.29-25.56-22.43-26.73-22.42-81.73V118.27q0-48,26-72Q327.54,26.1,363,26.09a79.3,79.3,0,0,1,49.28,16.65A75.31,75.31,0,0,1,431.84,65H465q-10.57-27.11-35.71-43.54-29.32-19-66.06-19-47.5,0-76.82,23-34.87,27.46-34.88,82.38V257.08q0,62.9,30.06,93.45,28.58,29.24,83.5,29.23,46,0,70.51-19,19.75-15.33,29-43.72H432.89A68.58,68.58,0,0,1,417,339.44Z" transform="translate(0 -2)"/><path class="cls-1" d="M392.91,131.86a10.6,10.6,0,0,0-.76-4,23.35,23.35,0,0,0-2.3-4.21,9,9,0,0,0-3.83-3.32v-34h58l3.32,6.64q6.65-2.3,16.22-5.36a58.51,58.51,0,0,1,17.74-3.06q23,0,34.72,11t11.75,35v63.83q0,21.19-13.28,31.91-11.49,9.19-29.62,9.19A68,68,0,0,1,455,228.88a9.9,9.9,0,0,0-4.08-1.28c-1.2,0-1.79.77-1.79,2.3V245a15.38,15.38,0,0,0,1.4,6.89,7.55,7.55,0,0,0,5,3.83v35H386.78v-35a22,22,0,0,0,3.32-1.53c1-.68,1.7-2,2-4a66.66,66.66,0,0,0,.63-9.19q.14-6.25.13-10.08Zm67.4-8.68h-6.63c-1.88,0-3.07.34-3.58,1q-1,1.27-1,7.4v57.83a8.58,8.58,0,0,0,.77,4.21c.34,1.2,1.44,1.79,3.32,1.79h6.12a12.28,12.28,0,0,0,8.68-3.06,10.69,10.69,0,0,0,3.19-5.62,33.59,33.59,0,0,0,.9-8.17V138a39.34,39.34,0,0,0-.51-7.91q-.51-2-3.58-4.47A12,12,0,0,0,460.31,123.18Z" transform="translate(0 -2)"/><path class="cls-1" d="M611.2,237.81q-28.34,0-45.45-11.23-19.14-12.77-19.14-37.53V127.26q0-22.22,21.44-33.44,17.1-8.94,42.38-8.94,36.26,0,53.62,12.77Q678.6,108.36,678.6,128v61q0,30.38-25.27,41.87Q638,237.81,611.2,237.81Zm10.72-113.36a7.59,7.59,0,0,0-3.44-6.51,13.27,13.27,0,0,0-7.79-2.42,12.21,12.21,0,0,0-7.66,2.55,8,8,0,0,0-3.32,6.64V199a7.73,7.73,0,0,0,3.19,6.51,13.48,13.48,0,0,0,15.45,0,7.28,7.28,0,0,0,3.57-6.25Z" transform="translate(0 -2)"/><path class="cls-1" d="M792,132.11a20.38,20.38,0,0,0-3.58-.25,23.42,23.42,0,0,0-8.93,1.66,36.46,36.46,0,0,0-8.17,4.74,20.21,20.21,0,0,0-8.68,17.14V191a13,13,0,0,0,1.78,7.29,9.76,9.76,0,0,0,4.09,3.71v34H700.3V202a9.26,9.26,0,0,0,4-3.58c1.1-1.7,1.66-4.35,1.66-7.93V133a11.85,11.85,0,0,0-.77-4.61,33.84,33.84,0,0,0-2.68-4.73,16.35,16.35,0,0,0-5.23-5v-32h63.83v4.85a28.11,28.11,0,0,0,3.31-.77q4.61-4.59,6.13-5.1a86.81,86.81,0,0,1,8.94-2.81,34.61,34.61,0,0,1,8.42-1H792Z" transform="translate(0 -2)"/><path class="cls-1" d="M816.47,132.78a23.85,23.85,0,0,0-1.79-10,12.22,12.22,0,0,0-6.13-5.9V87.18q3.32,0,4.85-1.77a16.29,16.29,0,0,0,2.05-2.91,9,9,0,0,0,1.27-4.68V51.49l54.64-15.44v45.5A7.43,7.43,0,0,0,872.64,85q1.27,2.17,6.12,2.17h14.56v32.17H879.78q-4.34,0-6.12,2.42c-1.2,1.62-1.79,4.3-1.79,8v50.81a26.69,26.69,0,0,0,1.79,9.58,15.24,15.24,0,0,0,4.59,6.89c1.87,1.45,3.58,2.68,5.11,3.7a18,18,0,0,0,6.89,3.06V234a38.79,38.79,0,0,1-11.1,3.19,94.49,94.49,0,0,1-13.41.9H856q-22,0-31.66-12-7.92-9.74-7.91-28.7Z" transform="translate(0 -2)"/></g></g></svg>