<svg xmlns="http://www.w3.org/2000/svg" viewBox="0 0 768 896"><defs><style>.cls-1{fill:#5e698a;}</style></defs><g id="Layer_2" data-name="Layer 2"><g id="Layer_1-2" data-name="Layer 1"><path id="curve1" class="cls-1" d="M64,0H704a64.12,64.12,0,0,1,64,64V832a64.19,64.19,0,0,1-64,64H64A64.12,64.12,0,0,1,0,832V64A64.12,64.12,0,0,1,64,0ZM352,800a32.09,32.09,0,0,0-32,32h0a32.09,32.09,0,0,0,32,32h64a32.09,32.09,0,0,0,32-32h0a32.09,32.09,0,0,0-32-32ZM64,64V768H704V64Z"/><path id="curve0" class="cls-1" d="M96,96H672V736H96Z"/></g></g></svg>