<?xml version="1.0" encoding="utf-8"?>
<!-- Generator: Adobe Illustrator 24.2.0, SVG Export Plug-In . SVG Version: 6.00 Build 0)  -->
<svg version="1.1"
	 id="Layer_1" shape-rendering="geometricPrecision" text-rendering="geometricPrecision" image-rendering="optimizeQuality"
	 xmlns="http://www.w3.org/2000/svg" xmlns:xlink="http://www.w3.org/1999/xlink" x="0px" y="0px" viewBox="0 0 1024 1024"
	 style="enable-background:new 0 0 1024 1024;" xml:space="preserve">
<style type="text/css">
	.st0{fill:#FFFEFB;}
</style>
<desc>monitor icon from the IconExperience.com O-Collection. Copyright by INCORS GmbH (www.incors.com).</desc>
<path id="curve2" class="st0" d="M320,896h64c17.6,0,32-14.4,32-32v-64h192v64c0,17.6,14.4,32,32,32h64c17.6,0,32,14.4,32,32v32H288
	v-32C288,910.4,302.4,896,320,896z"/>
<path id="curve1" class="st0" d="M160,160h704v512H160V160z"/>
<path id="curve0" class="st0" d="M128,64h768c35.3,0,64,28.7,64,64v576c0,35.2-28.8,64-64,64H128c-35.3,0-64-28.7-64-64V128
	C64,92.7,92.7,64,128,64z M128,128v576h768V128H128z"/>
</svg>
