<svg xmlns="http://www.w3.org/2000/svg" viewBox="0 0 576 896"><defs><style>.cls-1{fill:#5e698a;}</style></defs><g id="Layer_2" data-name="Layer 2"><g id="Layer_1-2" data-name="Layer 1"><path id="curve1" class="cls-1" d="M96,160H480V672H96Z"/><path id="curve0" class="cls-1" d="M64,0H512a64.12,64.12,0,0,1,64,64V832a64.19,64.19,0,0,1-64,64H64A64.12,64.12,0,0,1,0,832V64A64.12,64.12,0,0,1,64,0ZM224,32a32,32,0,0,0,0,64H352a32,32,0,0,0,0-64Zm64,704a64,64,0,1,0,64,64A64.06,64.06,0,0,0,288,736ZM64,128V704H512V128Z"/></g></g></svg>