<svg xmlns="http://www.w3.org/2000/svg" viewBox="0 0 896 896"><defs><style>.cls-1{fill:#5e698a;}</style></defs><g id="Layer_2" data-name="Layer 2"><g id="Layer_1-2" data-name="Layer 1"><path id="curve2" class="cls-1" d="M256,832h64a32.09,32.09,0,0,0,32-32V736H544v64a32.09,32.09,0,0,0,32,32h64a32.09,32.09,0,0,1,32,32v32H224V864A32.09,32.09,0,0,1,256,832Z"/><path id="curve1" class="cls-1" d="M96,96H800V608H96Z"/><path id="curve0" class="cls-1" d="M64,0H832a64.06,64.06,0,0,1,64,64V640a64.19,64.19,0,0,1-64,64H64A64.06,64.06,0,0,1,0,640V64A64.06,64.06,0,0,1,64,0Zm0,64V640H832V64Z"/></g></g></svg>