<?xml version="1.0" encoding="utf-8"?>
<!-- Generator: Adobe Illustrator 24.2.0, SVG Export Plug-In . SVG Version: 6.00 Build 0)  -->
<svg version="1.1"
	 id="Layer_1" shape-rendering="geometricPrecision" text-rendering="geometricPrecision" image-rendering="optimizeQuality"
	 xmlns="http://www.w3.org/2000/svg" xmlns:xlink="http://www.w3.org/1999/xlink" x="0px" y="0px" viewBox="0 0 1024 1024"
	 style="enable-background:new 0 0 1024 1024;" xml:space="preserve">
<style type="text/css">
	.st0{fill:#FFFEFB;}
</style>
<desc>tablet_computer icon from the IconExperience.com O-Collection. Copyright by INCORS GmbH (www.incors.com).</desc>
<path id="curve1" class="st0" d="M192,64h640c35.3,0,64,28.8,64,64v768c0,35.2-28.8,64-64,64H192c-35.2,0-64-28.7-64-64V128
	C128,92.7,156.8,64,192,64z M480,864c-17.6,0-32,14.4-32,32l0,0c0,17.6,14.4,32,32,32h64c17.6,0,32-14.4,32-32l0,0
	c0-17.6-14.4-32-32-32H480z M192,128v704h640V128H192z"/>
<path id="curve0" class="st0" d="M224,160h576v640H224V160z"/>
</svg>
