<?xml version="1.0" encoding="UTF-8"?>
<svg id="Layer_2" data-name="Layer 2" xmlns="http://www.w3.org/2000/svg" viewBox="0 0 782.96 377.76">
  <defs>
    <style>
      .cls-1 {
        fill: #5e698a;
      }

      .cls-2 {
        font-size: 194.92px;
        letter-spacing: .02em;
      }

      .cls-2, .cls-3 {
        fill: #e5be45;
        font-family: AcmeFont, AcmeFont;
      }

      .cls-3 {
        font-size: 290.13px;
        letter-spacing: .02em;
      }
    </style>
  </defs>
  <g id="Letters">
    <g>
      <polygon class="cls-1" points="220.12 214.59 0 148.91 0 165.33 220.12 231.01 220.12 214.59"/>
      <path class="cls-1" d="m23.03,260.64c0,4.35-.9,8.5-2.71,12.43-1.8,3.92-4.17,8.07-7.11,12.43-2.93,4.36-7.33,8.29-13.21,11.78v80.49h220.12v-80.49c-5.86-3.49-10.5-7.75-13.88-12.76-3.39-5.01-5.76-9.05-7.11-12.1-1.35-3.05-2.03-6.97-2.03-11.77h0L23.03,208.7v51.94Z"/>
      <path class="cls-1" d="m43.35,95.44c-1.96-4.41-4.97-9.6-9.2-15.87-2.75-4.07-5.99-7.83-9.69-11.24V24.46h171.2v43.77c-3.53,3.21-6.55,6.67-9.02,10.36-3.67,5.44-6.72,10.79-9.06,15.88-3.29,7.14-4.95,14.76-4.95,22.65v47.02l24.46,7.3v-54.32c0-4.35.9-8.5,2.71-12.43,1.8-3.92,4.17-8.07,7.11-12.43,2.93-4.36,7.33-8.29,13.21-11.78V0H0v80.49c5.86,3.49,10.5,7.75,13.88,12.76,3.39,5.01,5.76,9.05,7.11,12.1.32.72.6,6.04.84,13.8l24.65,7.36c-.56-25.23-1.25-26.82-3.14-31.07Z"/>
      <path class="cls-1" d="m416.96,337.44c-12.18,11.1-29.72,16.65-52.6,16.65-27.32,0-48.08-8.52-62.29-25.56-14.95-17.82-22.42-45.06-22.42-81.73V116.27c0-32.02,8.67-56.03,26.02-72.04,14.58-13.42,33.68-20.14,57.31-20.14,18.27,0,34.7,5.56,49.28,16.66,8.02,6.14,14.54,13.56,19.58,22.26h33.19c-7.06-18.07-18.95-32.59-35.72-43.54C409.77,6.77,387.75.42,363.26.42c-31.67,0-57.28,7.68-76.82,23.03-23.26,18.31-34.88,45.77-34.88,82.38v149.25c0,41.93,10.02,73.08,30.06,93.45,19.05,19.49,46.88,29.23,83.5,29.23,30.67,0,54.18-6.35,70.51-19.04,13.17-10.22,22.84-24.79,29-43.72h-31.73c-4.19,9.11-9.5,16.59-15.93,22.44Z"/>
      <g>
        <path class="cls-1" d="m742.7,23.83h-5.7v18.72c0,1.08-.24,1.88-.72,2.4s-1.1.78-1.86.78-1.4-.26-1.89-.79-.73-1.32-.73-2.39v-18.72h-5.7c-.89,0-1.55-.2-1.99-.59s-.65-.91-.65-1.56.23-1.2.68-1.58,1.1-.58,1.96-.58h16.59c.9,0,1.57.2,2.01.6s.66.92.66,1.56-.22,1.16-.67,1.56-1.11.59-2,.59Z"/>
        <path class="cls-1" d="m757.17,41.4l-4.13-16.42v17.79c0,.98-.22,1.72-.66,2.21-.44.49-1.02.74-1.75.74s-1.28-.24-1.72-.73-.67-1.23-.67-2.22v-20.39c0-1.12.29-1.88.88-2.28s1.38-.59,2.37-.59h1.62c.97,0,1.68.09,2.12.26s.76.49.98.95.45,1.2.72,2.23l3.74,14.12,3.74-14.12c.27-1.03.51-1.78.72-2.23s.54-.77.98-.95,1.15-.26,2.12-.26h1.62c1,0,1.79.2,2.37.59s.88,1.15.88,2.28v20.39c0,.98-.22,1.72-.66,2.21s-1.03.74-1.77.74c-.69,0-1.26-.25-1.71-.74s-.67-1.23-.67-2.21v-17.79l-4.13,16.42c-.27,1.07-.49,1.85-.66,2.35s-.48.95-.94,1.36-1.09.62-1.9.62c-.61,0-1.12-.13-1.55-.4s-.75-.6-.98-1.01-.42-.86-.55-1.36-.27-1.02-.41-1.56Z"/>
      </g>
      <g>
        <text class="cls-2" transform="translate(531 300.05)"><tspan x="0" y="0">ub</tspan></text>
        <text class="cls-3" transform="translate(333 297)"><tspan x="0" y="0">H</tspan></text>
      </g>
    </g>
  </g>
</svg>