<svg xmlns="http://www.w3.org/2000/svg" viewBox="0 0 102.29 75.21"><defs><style>.cls-1{opacity:0.3;}.cls-2{fill:#808081;}.cls-3{fill:#ccccca;}.cls-4{fill:#fffffc;}.cls-5,.cls-6,.cls-7{font-size:12px;fill:#ec7478;font-family:MyriadPro-Regular, Myriad Pro;}.cls-6{opacity:0.4;}.cls-7{opacity:0.7;}</style></defs><g id="Layer_2" data-name="Layer 2"><g id="G"><g class="cls-1"><polygon class="cls-2" points="35.58 75.17 35.16 75.21 41.8 32.3 42.22 32.26 35.58 75.17"/><polygon class="cls-2" points="66.99 75.17 67.41 75.21 60.77 32.3 60.35 32.26 66.99 75.17"/></g><circle class="cls-3" cx="51.03" cy="19.25" r="19.25"/><ellipse class="cls-3" cx="51.15" cy="19.05" rx="51.15" ry="10.65"/><path class="cls-4" d="M60.9,11.19l-4.46,6.28a12.07,12.07,0,0,0-5.16-1.34,3.74,3.74,0,0,0-2.53.82,2.7,2.7,0,0,0-1,2.15c0,1.7,1.11,2.55,3.34,2.55V18.38h9.25V29.64Q54.78,30,52.8,30q-7.66,0-10.65-3.26a10.91,10.91,0,0,1-3-7.6,11.09,11.09,0,0,1,1.39-5.47,9.52,9.52,0,0,1,4-3.86A13.17,13.17,0,0,1,50.77,8.4,19.83,19.83,0,0,1,56,9.13,19.42,19.42,0,0,1,60.9,11.19Z"/><text class="cls-5" transform="translate(43.66 51.17)">?</text><text class="cls-6" transform="translate(48.03 67.04)">?</text><text class="cls-7" transform="translate(54.29 55.04)">?</text></g></g></svg>