<?xml version="1.0" encoding="UTF-8"?>
<svg id="Layer_2" data-name="Layer 2" xmlns="http://www.w3.org/2000/svg" viewBox="0 0 384.56 377.76">
  <defs>
    <style>
      .cls-1 {
        fill: #2b2b2b;
      }

      .cls-2 {
        fill: #e5be45;
      }
    </style>
  </defs>
  <g id="Letters">
    <g>
      <polygon class="cls-2" points="220.12 214.59 0 148.91 0 165.33 220.12 231.01 220.12 214.59"/>
      <path class="cls-2" d="m23,260.64c.02,4.29-.91,8.53-2.71,12.42-2.03,4.33-4.41,8.49-7.11,12.43-2.91,4.34-7.31,8.27-13.18,11.78v80.49h220.12v-80.49c-5.52-3.17-10.26-7.53-13.89-12.76-2.7-3.83-5.08-7.88-7.11-12.1-1.47-3.74-2.15-7.75-2-11.77h0L23,208.7v51.94Z"/>
      <path class="cls-2" d="m43.35,95.44c-2.6-5.55-5.68-10.86-9.2-15.88-2.78-4.11-6.04-7.88-9.69-11.24V24.46h171.2v43.77c-3.41,3.08-6.43,6.55-9,10.36-3.45,5.04-6.48,10.35-9.06,15.88-3.29,7.1-5,14.83-5,22.65v47l24.46,7.29v-54.29c-.02-4.29.91-8.53,2.71-12.42,2.03-4.33,4.41-8.49,7.11-12.43,2.93-4.36,7.34-8.29,13.21-11.78V0H0v80.49c5.52,3.17,10.26,7.53,13.88,12.76,2.7,3.83,5.08,7.88,7.12,12.1.31.72.6,6,.84,13.8l24.65,7.36c-.56-25.24-1.25-26.82-3.14-31.07Z"/>
      <path class="cls-1" d="m304.53,11.37h-15v49.28c0,2.83-.63,4.94-1.9,6.31-1.26,1.37-3.04,2.12-4.9,2.06-1.89.07-3.72-.69-5-2.08-1.28-1.39-1.92-3.48-1.92-6.29V11.37h-15c-1.87.15-3.74-.41-5.23-1.55-1.15-1.05-1.77-2.55-1.71-4.1-.07-1.59.58-3.12,1.78-4.16,1.48-1.11,3.31-1.66,5.16-1.53h43.72c1.9-.15,3.79.41,5.3,1.57,1.16,1.05,1.8,2.56,1.74,4.12.06,1.56-.59,3.07-1.76,4.1-1.51,1.14-3.39,1.69-5.28,1.55Z"/>
      <path class="cls-1" d="m342.64,57.64l-10.87-43.22v46.83c0,2.59-.58,4.53-1.74,5.83-2.45,2.52-6.47,2.58-8.99.14-.05-.04-.09-.09-.14-.14-1.18-1.28-1.76-3.23-1.76-5.85V7.57c0-2.96.77-4.96,2.31-6,1.88-1.12,4.06-1.66,6.25-1.55h4.25c1.89-.09,3.77.14,5.58.69,1.15.46,2.07,1.36,2.57,2.5.78,1.91,1.42,3.87,1.9,5.88l9.85,37.16,9.86-37.16c.48-2.01,1.11-3.97,1.89-5.88.5-1.14,1.42-2.03,2.57-2.5,1.81-.55,3.69-.78,5.58-.69h4.25c2.19-.11,4.37.43,6.25,1.55,1.54,1.03,2.31,3.03,2.31,6v53.68c0,2.59-.57,4.53-1.73,5.83-1.19,1.3-2.89,2.01-4.65,1.94-1.71.05-3.35-.66-4.49-1.94-1.17-1.3-1.76-3.24-1.76-5.83V14.42l-10.87,43.22c-.71,2.81-1.29,4.86-1.74,6.18-.5,1.39-1.35,2.62-2.47,3.58-1.4,1.15-3.19,1.73-5,1.62-1.42.06-2.83-.29-4.07-1-1.08-.65-1.97-1.57-2.59-2.66-.64-1.13-1.13-2.34-1.46-3.59-.35-1.35-.72-2.71-1.09-4.13Z"/>
    </g>
  </g>
</svg>