<?xml version="1.0" encoding="UTF-8"?>
<svg id="Layer_2" data-name="Layer 2" xmlns="http://www.w3.org/2000/svg" viewBox="0 0 220.12 377.76">
  <defs>
    <style>
      .cls-1 {
        fill: #e5be45;
      }
    </style>
  </defs>
  <g id="Letters">
    <g>
      <polygon class="cls-1" points="220.12 214.59 0 148.91 0 165.33 220.12 231.01 220.12 214.59"/>
      <path class="cls-1" d="m23,260.64c.02,4.29-.91,8.53-2.71,12.42-2.03,4.33-4.41,8.49-7.11,12.43-2.91,4.34-7.31,8.27-13.18,11.78v80.49h220.12v-80.49c-5.52-3.17-10.26-7.53-13.89-12.76-2.7-3.83-5.08-7.88-7.11-12.1-1.47-3.74-2.15-7.75-2-11.77h0L23,208.7v51.94Z"/>
      <path class="cls-1" d="m43.35,95.44c-2.6-5.55-5.68-10.86-9.2-15.88-2.78-4.11-6.04-7.88-9.69-11.24V24.46h171.2v43.77c-3.41,3.08-6.43,6.55-9,10.36-3.45,5.04-6.48,10.35-9.06,15.88-3.29,7.1-5,14.83-5,22.65v47l24.46,7.29v-54.29c-.02-4.29.91-8.53,2.71-12.42,2.03-4.33,4.41-8.49,7.11-12.43,2.93-4.36,7.34-8.29,13.21-11.78V0H0v80.49c5.52,3.17,10.26,7.53,13.88,12.76,2.7,3.83,5.08,7.88,7.12,12.1.31.72.6,6,.84,13.8l24.65,7.36c-.56-25.24-1.25-26.82-3.14-31.07Z"/>
    </g>
  </g>
</svg>