<svg xmlns="http://www.w3.org/2000/svg" viewBox="0 0 144 144"><defs><style>.cls-1{fill:#fff;opacity:0.01;}.cls-2{fill:#808081;}</style></defs><title>Icon-Link-Close</title><g id="Layer_2" data-name="Layer 2"><g id="Layer_1-2" data-name="Layer 1"><rect class="cls-1" width="144" height="144"/><path class="cls-2" d="M48,95.89c3.76,3.76,11.27-3.76,11.27-3.76L93.1,58.26s7.51-7.53,3.76-11.3-11.28,3.77-11.28,3.77L51.76,84.6S44.24,92.13,48,95.89Zm79.18-56.36A5.1,5.1,0,0,1,128.55,42a5.24,5.24,0,0,1-1.5,4.9L90.85,83l1.87,1.86c7.29,7.3,13.81-2.39,22.79-11.39L133.2,55.6c9-9,6.58-18.34-.72-25.65-3.63-3.63-14.76-14.79-18.4-18.42-7.29-7.31-16.62-9.72-25.61-.72L70.66,28.52c-9,9-18.67,15.52-11.37,22.83l1.86,1.87L97.21,17a5.07,5.07,0,0,1,7.32-.13C108.65,21,123.06,35.39,127.18,39.53ZM17.82,103.47a5.1,5.1,0,0,1-1.37-2.42,5.24,5.24,0,0,1,1.5-4.9L54.15,60l-1.87-1.86C45,50.87,38.47,60.56,29.49,69.56L11.8,87.4c-9,9-6.58,18.34.72,25.65,3.63,3.63,14.76,14.79,18.4,18.42,7.29,7.31,16.62,9.72,25.61.72l17.81-17.71c9-9,18.67-15.52,11.37-22.83l-1.86-1.87L47.79,126a5.07,5.07,0,0,1-7.32.13C36.35,122,21.94,107.61,17.82,103.47Z"/></g></g></svg>