<svg xmlns="http://www.w3.org/2000/svg" viewBox="0 0 64.24 64.24"><defs><style>.cls-1{fill:#808081;}</style></defs><title>Icon-Link-Open</title><g id="Layer_2" data-name="Layer 2"><g id="Layer_1-2" data-name="Layer 1"><path class="cls-1" d="M44.23,0A10,10,0,0,0,38.35,3L31.56,9.73c-3.43,3.42-4.26,8.77-1.47,11.55l.7.71L43.11,9.62a2,2,0,0,1,2.79,0l8.77,8.77a1.94,1.94,0,0,1-.05,2.79L42.25,33.45l.71.71c2.78,2.78,8.13,2,11.56-1.47l6.74-6.79c3.42-3.43,4-8.48,1.21-11.26L49.6,1.77A6.44,6.44,0,0,0,44.23.05ZM37.85,20.87a3.17,3.17,0,0,0-2.28.91L21.78,35.57a3.21,3.21,0,0,0,0,4.56l2.33,2.33a3.21,3.21,0,0,0,4.56,0L42.46,28.68a3.22,3.22,0,0,0,0-4.57l-2.33-2.33A3.19,3.19,0,0,0,37.85,20.87ZM17.33,28.46a10.39,10.39,0,0,0-7.61,3.1L3,38.35C-.44,41.77-1,46.82,1.77,49.6L14.64,62.48c2.78,2.78,7.83,2.2,11.25-1.22l6.8-6.74c3.42-3.43,4.25-8.78,1.47-11.56l-.71-.71L21.13,54.62a1.94,1.94,0,0,1-2.79.05L9.57,45.9a1.94,1.94,0,0,1,0-2.79L22,30.8l-.71-.71a5.89,5.89,0,0,0-4-1.63Z"/></g></g></svg>