<svg xmlns="http://www.w3.org/2000/svg" viewBox="0 0 57.17 57.17"><defs><style>.cls-1{fill:#808081;}</style></defs><title>Icon-Link-Close</title><g id="Layer_2" data-name="Layer 2"><g id="Layer_1-2" data-name="Layer 1"><path class="cls-1" d="M37.16,0A10,10,0,0,0,31.28,3l-6.8,6.75C21.06,13.15,20.23,18.5,23,21.28l.71.71L36,9.62a2,2,0,0,1,2.79,0l8.77,8.77a1.94,1.94,0,0,1-.05,2.79L35.18,33.45l.71.71c2.78,2.78,8.13,2,11.56-1.47l6.74-6.79c3.42-3.43,4-8.48,1.21-11.26L42.53,1.77A6.44,6.44,0,0,0,37.16.05ZM34.31,17.33a3.16,3.16,0,0,0-2.28.92L18.24,32a3.21,3.21,0,0,0,0,4.56l2.34,2.34a3.21,3.21,0,0,0,4.56,0L38.92,25.14a3.19,3.19,0,0,0,0-4.56l-2.33-2.33A3.14,3.14,0,0,0,34.31,17.33Zm-17,4.06a10.35,10.35,0,0,0-7.61,3.1L3,31.28C-.44,34.7-1,39.75,1.77,42.53L14.64,55.4c2.78,2.79,7.83,2.21,11.25-1.21l6.8-6.74c3.42-3.43,4.25-8.78,1.47-11.56l-.71-.71L21.13,47.55a1.94,1.94,0,0,1-2.79.05L9.57,38.83a1.94,1.94,0,0,1,0-2.79L22,23.72,21.28,23a5.88,5.88,0,0,0-4-1.62Z"/></g></g></svg>