<svg xmlns="http://www.w3.org/2000/svg" viewBox="0 0 220.12 377.76"><defs><style>.cls-1{fill:#8d94aa;}</style></defs><g id="Layer_2" data-name="Layer 2"><g id="Layer_1-2" data-name="Layer 1"><polygon class="cls-1" points="220.12 214.59 0 148.91 0 165.33 220.12 231.01 220.12 214.59"/><path class="cls-1" d="M23,260.64a29.26,29.26,0,0,1-2.71,12.42,88.32,88.32,0,0,1-7.11,12.43Q8.82,292,0,297.27v80.49H220.12V297.27a42.94,42.94,0,0,1-13.89-12.76,84.83,84.83,0,0,1-7.11-12.1,29.21,29.21,0,0,1-2-11.77h0L23,208.7Z"/><path class="cls-1" d="M43.35,95.44a105.94,105.94,0,0,0-9.2-15.88,64.13,64.13,0,0,0-9.69-11.24V24.46h171.2V68.23a56.62,56.62,0,0,0-9,10.36,111.78,111.78,0,0,0-9.06,15.88,53.88,53.88,0,0,0-5,22.65v47l24.46,7.29V117.12a29.26,29.26,0,0,1,2.71-12.42,88.32,88.32,0,0,1,7.11-12.43q4.4-6.54,13.21-11.78V0H0V80.49A42.81,42.81,0,0,1,13.88,93.25,85.85,85.85,0,0,1,21,105.35c.31.72.6,6,.84,13.8l24.65,7.36C45.93,101.27,45.24,99.69,43.35,95.44Z"/></g></g></svg>