<svg xmlns="http://www.w3.org/2000/svg" viewBox="0 0 384.6875 256.9127"><defs><style>.cls-1{fill:#00d9ff;stroke:#266a84;stroke-miterlimit:10;}</style></defs><title>Logo_Blip</title><g id="Layer_2" data-name="Layer 2"><g id="Layer_8" data-name="Layer 8"><path class="cls-1" d="M189.585,183.272a9.8881,9.8881,0,0,0,2.042,6.3116,6.3017,6.3017,0,0,0,2.9707,2.413v24.69H146.332V192.1822a5.4769,5.4769,0,0,0,4.1768-5.3838c.06-1.2354.0928-2.2275.0928-2.97V101.9625a24.3821,24.3821,0,0,0-.1768-3.8985,6.5677,6.5677,0,0,0-1.7812-3.1552l-2.3116-1.6709V68.1773h43.253Z"/><path class="cls-1" d="M259.9688,183.6431a7.6363,7.6363,0,0,0,.5585,2.877,17.0756,17.0756,0,0,0,1.67,3.0635,6.479,6.479,0,0,0,2.7851,2.413v24.69H216.53v-24.69a6.7182,6.7182,0,0,0,2.8769-2.5986,10.7779,10.7779,0,0,0,1.2071-5.7549V141.8746a8.57,8.57,0,0,0-.5567-3.3418,24.5207,24.5207,0,0,0-1.9492-3.4336,11.95,11.95,0,0,0-3.8057-3.62v-22.833h45.6661ZM238.6211,68.1773a27.81,27.81,0,0,1,14.8516,3.9912q6.495,3.9932,6.4961,11.2305A13.9121,13.9121,0,0,1,253.75,95.28a24.36,24.36,0,0,1-14.5723,4.4551,27.3965,27.3965,0,0,1-15.4072-4.2695Q216.53,90.64,216.53,82.8423q0-7.0532,6.7754-10.8593A30.7473,30.7473,0,0,1,238.6211,68.1773Z"/><path class="cls-1" d="M286.1709,140.9468a7.6908,7.6908,0,0,0-.5566-2.8779,17.0233,17.0233,0,0,0-1.6709-3.0625,6.4945,6.4945,0,0,0-2.7842-2.4131v-24.69h42.14l2.4131,4.8271q4.8252-1.6713,11.7881-3.8984a42.5164,42.5164,0,0,1,12.9014-2.2275q16.7079,0,25.247,7.9824,8.5358,7.9835,8.5391,25.4316v46.4092q0,15.4116-9.6533,23.2051Q366.18,216.3151,353,216.315a49.39,49.39,0,0,1-21.7187-4.8262,7.211,7.211,0,0,0-2.9708-.9287q-1.3006,0-1.2988,1.6709v10.9522a11.1308,11.1308,0,0,0,1.02,5.0127,5.47,5.47,0,0,0,3.62,2.7841v25.4327H281.7158V230.98a16.78,16.78,0,0,0,2.4131-1.1132,4.1392,4.1392,0,0,0,1.4854-2.878,49.26,49.26,0,0,0,.4638-6.6826q.0922-4.5513.0928-7.333Zm49.0088-6.3115h-4.8272c-1.3632,0-2.2275.249-2.5986.7422q-.7442.9317-.7422,5.3838v42.0459a6.2516,6.2516,0,0,0,.5567,3.0635q.3691,1.3008,2.413,1.2988h4.4551a8.9368,8.9368,0,0,0,6.3115-2.2275,7.8226,7.8226,0,0,0,2.32-4.084,24.6026,24.6026,0,0,0,.65-5.9405V145.4019a28.7311,28.7311,0,0,0-.3711-5.7549,6.7958,6.7958,0,0,0-2.6-3.249A8.6942,8.6942,0,0,0,335.18,134.6353Z"/><path class="cls-1" d="M76.4067,148.5914q0,10.5925-1.9069,16.8324-2.4858,8.15-7.8307,8.1461H58.9385c-1.5311,0-2.5463-.45-3.0566-1.3573a10.0832,10.0832,0,0,1-.5707-3.801V130.8973l-49.6089-14.2v51.6832a17.67,17.67,0,0,1-.579,4.5951A26.8691,26.8691,0,0,1,3.488,176.9,8.517,8.517,0,0,1,.5,180.5452V216.5H91.05q17.3392,0,26.9713-15.95,8.4741-14.0562,8.4783-36.2221c0-4.3277-.0894-8.3422-.2616-12.0658L75.275,137.0553A53.9509,53.9509,0,0,1,76.4067,148.5914Z"/><path class="cls-1" d="M21.0494,49.4344a30.4189,30.4189,0,0,0-1.1864-8.949,53.6745,53.6745,0,0,0-2.7206-6.8241A30.2609,30.2609,0,0,0,14.5,29.0682V14.5H89.0268c3.5605,0,8.33.8679,13.6558,7.6346,4.8549,6.17,7.2149,14.1273,7.2149,24.3255,0,16.4812-1.04,24.1936-1.9211,27.7977-1.9285,7.9783-7.3235,13.4938-11.4282,16.7607a20.9626,20.9626,0,0,0-2.2539,2.03l14.4124,4.3005q9.5148-5.925,12.8778-19.8025,2.313-9.4593,2.313-31.0868,0-20.0056-10.2124-32.9824Q103.4741.5029,89.0268.5H.5V34.2919a15.5649,15.5649,0,0,1,3.9483,5.2737,40.8706,40.8706,0,0,1,2.0222,4.9989,17.0112,17.0112,0,0,1,.5789,4.87V67.2171l14,4.1774Z"/><polygon class="cls-1" points="0.5 85.002 0.5 94.401 126.5 131.998 126.5 122.599 0.5 85.002"/></g></g></svg>