<svg xmlns="http://www.w3.org/2000/svg" viewBox="0 0 779.69 377.76"><defs><style>.cls-1{fill:#5e698a;}.cls-2{fill:#00d9ff;}</style></defs><title>Logo_IO_Blip</title><g id="Layer_2" data-name="Layer 2"><g id="Letters"><polygon class="cls-1" points="220.12 214.59 0 148.91 0 165.33 220.12 231.01 220.12 214.59"/><path class="cls-1" d="M23,260.64a29.34,29.34,0,0,1-2.71,12.42,88.57,88.57,0,0,1-7.11,12.43Q8.81,292,0,297.27v80.49H220.12V297.27a42.88,42.88,0,0,1-13.89-12.76,85,85,0,0,1-7.11-12.1,29.27,29.27,0,0,1-2-11.77h0L23,208.7Z"/><path class="cls-1" d="M43.35,95.44a105.86,105.86,0,0,0-9.2-15.88,64,64,0,0,0-9.69-11.24V24.46h171.2V68.23a56.62,56.62,0,0,0-9,10.36,112.5,112.5,0,0,0-9.06,15.88,53.89,53.89,0,0,0-5,22.65v47l24.46,7.3V117.12a29.34,29.34,0,0,1,2.71-12.42,88.57,88.57,0,0,1,7.11-12.43q4.4-6.54,13.21-11.78V0H0V80.49A42.84,42.84,0,0,1,13.88,93.25,85.27,85.27,0,0,1,21,105.35c.31.72.6,6,.84,13.8l24.65,7.36C45.93,101.27,45.24,99.69,43.35,95.44Z"/><path class="cls-1" d="M417,337.44q-18.27,16.65-52.6,16.65-41,0-62.29-25.56-22.43-26.73-22.42-81.73V116.27q0-48,26-72Q327.54,24.1,363,24.09a79.3,79.3,0,0,1,49.28,16.65A75.31,75.31,0,0,1,431.84,63H465q-10.57-27.11-35.71-43.54Q400,.42,363.26.42q-47.5,0-76.82,23-34.87,27.46-34.88,82.38V255.08q0,62.89,30.06,93.45,28.58,29.24,83.5,29.23,46,0,70.51-19,19.75-15.33,29-43.72H432.89A68.58,68.58,0,0,1,417,337.44Z"/><path class="cls-2" d="M585.08,263.77a9.84,9.84,0,0,0,2,6.31,6.29,6.29,0,0,0,3,2.42v24.69H541.83V272.68a5.85,5.85,0,0,0,3.34-2.41,5.74,5.74,0,0,0,.84-3q.09-1.86.09-3V182.46a23.83,23.83,0,0,0-.18-3.9,6.47,6.47,0,0,0-1.78-3.15l-2.31-1.67V148.68h43.25Z"/><path class="cls-2" d="M655.47,264.14A7.5,7.5,0,0,0,656,267a16.94,16.94,0,0,0,1.67,3.06,6.5,6.5,0,0,0,2.78,2.42v24.69H612V272.5a6.81,6.81,0,0,0,2.88-2.6,10.85,10.85,0,0,0,1.2-5.76V222.37a8.6,8.6,0,0,0-.55-3.34,24.22,24.22,0,0,0-1.95-3.43A11.94,11.94,0,0,0,609.8,212V189.15h45.67ZM634.12,148.68a27.79,27.79,0,0,1,14.85,4q6.49,4,6.5,11.23a13.91,13.91,0,0,1-6.22,11.88,24.36,24.36,0,0,1-14.57,4.45A27.47,27.47,0,0,1,619.27,176Q612,171.14,612,163.34q0-7.05,6.78-10.86A30.77,30.77,0,0,1,634.12,148.68Z"/><path class="cls-2" d="M681.67,221.45a7.54,7.54,0,0,0-.56-2.88,16.34,16.34,0,0,0-1.67-3.06,6.5,6.5,0,0,0-2.78-2.42V188.4H718.8l2.41,4.83q4.83-1.66,11.79-3.9a42.69,42.69,0,0,1,12.9-2.23q16.71,0,25.25,8t8.54,25.43v46.41q0,15.4-9.66,23.2-8.35,6.69-21.53,6.69A49.36,49.36,0,0,1,726.78,292a7.2,7.2,0,0,0-3-.93c-.87,0-1.3.56-1.3,1.67v10.95a11.2,11.2,0,0,0,1,5,5.49,5.49,0,0,0,3.62,2.78v25.43H677.22V311.48a17.75,17.75,0,0,0,2.41-1.11,4.13,4.13,0,0,0,1.48-2.88,49.53,49.53,0,0,0,.47-6.68c.06-3,.09-5.48.09-7.34Zm49-6.31h-4.83c-1.36,0-2.22.24-2.6.74s-.74,2.41-.74,5.38v42.05a6.26,6.26,0,0,0,.56,3.06c.24.87,1,1.3,2.41,1.3h4.46a8.91,8.91,0,0,0,6.31-2.23,7.9,7.9,0,0,0,2.32-4.08,24.71,24.71,0,0,0,.65-5.94V225.9a29.21,29.21,0,0,0-.37-5.75,6.84,6.84,0,0,0-2.6-3.25A8.67,8.67,0,0,0,730.68,215.14Z"/><path class="cls-2" d="M397.39,297V260.71a8.62,8.62,0,0,0,3.08-3.68,26.74,26.74,0,0,0,1.69-3.95,17.51,17.51,0,0,0,.6-4.64v-120a16.83,16.83,0,0,0-.6-4.92,40.61,40.61,0,0,0-2.09-5,15.62,15.62,0,0,0-4.07-5.32V79h90.64q14.91,0,25.45,13.1t10.53,33.29q0,21.82-2.38,31.37-3.78,15.27-15.11,21c-.8.36-1.19,1.45-1.19,3.27q0,2.46,1,3a48.35,48.35,0,0,1,17.49,24.56Q526,220.34,526,244.35q0,22.36-8.75,36.55Q507.32,297,489.43,297Zm75.34-155.86a38.45,38.45,0,0,0-2.39-14Q468,121,463.19,121h-8.35c-1.2,0-2.06.73-2.59,2.18a7.2,7.2,0,0,0-.39,2.45v31.61a11.56,11.56,0,0,0,.59,4.63,3.26,3.26,0,0,0,3,1.63h8.75q4.77,0,7-7.35Q472.73,150.69,472.73,141.14Zm1.59,87.33a46.76,46.76,0,0,0-2.39-15.89q-3-8.49-8.74-8.5h-8.35a2.56,2.56,0,0,0-2.59,2.2,14.23,14.23,0,0,0-.39,4.1v38.09a9.82,9.82,0,0,0,.59,3.83q.78,1.38,3.15,1.38h8.67q5.52,0,8.08-8.23Q474.32,239.17,474.32,228.47Z"/><path class="cls-1" d="M742.7,23.83H737V42.55a3.48,3.48,0,0,1-.72,2.4,2.42,2.42,0,0,1-1.86.78,2.49,2.49,0,0,1-1.89-.79,3.42,3.42,0,0,1-.73-2.39V23.83h-5.69a2.9,2.9,0,0,1-2-.59,2,2,0,0,1-.65-1.56,2,2,0,0,1,.68-1.58,2.9,2.9,0,0,1,2-.58H742.7a2.91,2.91,0,0,1,2,.6,2,2,0,0,1,.66,1.56,2,2,0,0,1-.67,1.56A3,3,0,0,1,742.7,23.83Z"/><path class="cls-1" d="M757.17,41.4,753,25V42.77a3.24,3.24,0,0,1-.66,2.22,2.25,2.25,0,0,1-1.75.74,2.23,2.23,0,0,1-1.72-.73,3.2,3.2,0,0,1-.67-2.23V22.38a2.54,2.54,0,0,1,.88-2.27,4.12,4.12,0,0,1,2.37-.59h1.62a6.25,6.25,0,0,1,2.11.26,1.79,1.79,0,0,1,1,.95,15,15,0,0,1,.72,2.23l3.75,14.12L764.41,23a15,15,0,0,1,.72-2.23,1.79,1.79,0,0,1,1-.95,6.25,6.25,0,0,1,2.11-.26h1.62a4.12,4.12,0,0,1,2.37.59,2.54,2.54,0,0,1,.88,2.27V42.77a3.24,3.24,0,0,1-.66,2.22A2.4,2.4,0,0,1,769,45a3.24,3.24,0,0,1-.67-2.22V25L764.16,41.4c-.27,1.07-.49,1.85-.66,2.35a3.19,3.19,0,0,1-.94,1.36,2.72,2.72,0,0,1-1.89.62,2.82,2.82,0,0,1-1.55-.4,2.9,2.9,0,0,1-1-1,5.69,5.69,0,0,1-.55-1.36Z"/></g></g></svg>