<svg xmlns="http://www.w3.org/2000/svg" viewBox="0 0 900.72 379.76"><defs><style>.cls-1,.cls-2{fill:#8d94aa;}.cls-2{isolation:isolate;font-size:268.08px;font-family:AcmeFont;}</style></defs><g id="Layer_2" data-name="Layer 2"><g id="Layer_1-2" data-name="Layer 1"><polygon class="cls-1" points="220.12 216.59 0 150.91 0 167.33 220.12 233.01 220.12 216.59"/><path class="cls-1" d="M23,262.64a29.26,29.26,0,0,1-2.71,12.42,88.32,88.32,0,0,1-7.11,12.43Q8.82,294,0,299.27v80.49H220.12V299.27a42.94,42.94,0,0,1-13.89-12.76,84.29,84.29,0,0,1-7.11-12.1,29.21,29.21,0,0,1-2-11.77h0L23,210.7Z"/><path class="cls-1" d="M43.35,97.44a105.94,105.94,0,0,0-9.2-15.88,64.13,64.13,0,0,0-9.69-11.24V26.46h171.2V70.23a57,57,0,0,0-9,10.36,111.78,111.78,0,0,0-9.06,15.88,53.88,53.88,0,0,0-5,22.65v47l24.46,7.29V119.12a29.26,29.26,0,0,1,2.71-12.42,88.88,88.88,0,0,1,7.11-12.43q4.4-6.54,13.21-11.78V2H0V82.49A42.81,42.81,0,0,1,13.88,95.25,85.85,85.85,0,0,1,21,107.35c.31.72.6,6,.84,13.8l24.65,7.36C45.93,103.27,45.24,101.69,43.35,97.44Z"/><path class="cls-1" d="M417,339.44q-18.27,16.65-52.6,16.65-41,0-62.29-25.56-22.42-26.73-22.42-81.73V118.27q0-48,26-72Q327.54,26.11,363,26.09a79.32,79.32,0,0,1,49.28,16.65A75.3,75.3,0,0,1,431.84,65H465q-10.58-27.11-35.71-43.54-29.32-19-66.06-19-47.5,0-76.82,23-34.87,27.47-34.88,82.38V257.08q0,62.91,30.06,93.45,28.57,29.25,83.5,29.23,46,0,70.51-19,19.75-15.33,29-43.72H432.89A68.62,68.62,0,0,1,417,339.44Z"/><text class="cls-2" transform="translate(378.1 235.77)">port</text></g></g></svg>