<svg xmlns="http://www.w3.org/2000/svg" viewBox="0 0 744.6875 378.7601"><defs><style>.cls-1{fill:#5e698a;stroke:#00d9ff;}.cls-1,.cls-2{stroke-miterlimit:10;}.cls-2{fill:#00d9ff;stroke:#266a84;}</style></defs><title>Logo_IOport_Blip</title><g id="Layer_2" data-name="Layer 2"><g id="Layer_8" data-name="Layer 8"><polygon class="cls-1" points="220.616 215.09 0.5 149.41 0.5 165.83 220.616 231.509 220.616 215.09"/><path class="cls-1" d="M23.5287,261.1362a29.3858,29.3858,0,0,1-2.7106,12.4272,88.0616,88.0616,0,0,1-7.1124,12.4272Q9.313,292.5315.5,297.7746V378.26H220.6156V297.7746a42.8815,42.8815,0,0,1-13.8843-12.7639A84.9046,84.9046,0,0,1,199.62,272.91a29.2153,29.2153,0,0,1-2.0321-11.7733h0L23.5287,209.1991Z"/><path class="cls-1" d="M43.853,95.9354a106.8693,106.8693,0,0,0-9.2013-15.8749A63.7569,63.7569,0,0,0,24.9573,68.825V24.9573h171.201V68.7292a57.0014,57.0014,0,0,0-9.02,10.3579A112.7547,112.7547,0,0,0,178.0808,94.97a53.7994,53.7994,0,0,0-4.9512,22.6535v47.0236l24.4573,7.2978V117.6238a29.3845,29.3845,0,0,1,2.7106-12.4271A88.0518,88.0518,0,0,1,207.41,92.77q4.3926-6.541,13.2057-11.7839V.5H.5V80.9856A42.88,42.88,0,0,1,14.3842,93.75a84.9071,84.9071,0,0,1,7.1115,12.1011c.319.7191.6,6.0355.8438,13.803l24.65,7.3552C46.433,101.7741,45.7409,100.1907,43.853,95.9354Z"/><path class="cls-1" d="M429.8168,19.9638Q400.4979.9255,363.7616.9191q-47.5069,0-76.8175,23.03-34.8865,27.467-34.8834,82.3778V255.58q0,62.8932,30.0589,93.4491Q310.6913,378.26,365.6168,378.26q46.01,0,70.5092-19.0439,37.1034-28.7847,37.11-103.6358V108.5411Q473.2357,48.3149,429.8168,19.9638Zm15.3321,227.338q0,65.46-27.6847,90.6345-18.2721,16.6488-52.6014,16.6549-40.9753,0-62.2908-25.5636-22.425-26.7264-22.4246-81.7258v-130.53q0-48.0229,26.0237-72.0433,21.8667-20.1348,57.3078-20.141a79.3009,79.3009,0,0,1,49.2786,16.6556q32.3917,24.7918,32.3914,77.4652Z"/><path class="cls-2" d="M549.585,264.272a9.8881,9.8881,0,0,0,2.042,6.3116,6.3017,6.3017,0,0,0,2.9707,2.413v24.69H506.332V273.1822a5.4769,5.4769,0,0,0,4.1768-5.3838c.06-1.2354.0928-2.2275.0928-2.97V182.9625a24.3821,24.3821,0,0,0-.1768-3.8985,6.5677,6.5677,0,0,0-1.7812-3.1552l-2.3116-1.6709V149.1773h43.253Z"/><path class="cls-2" d="M619.9688,264.6431a7.6363,7.6363,0,0,0,.5585,2.877,17.0756,17.0756,0,0,0,1.67,3.0635,6.479,6.479,0,0,0,2.7851,2.413v24.69H576.53v-24.69a6.7182,6.7182,0,0,0,2.8769-2.5986,10.7779,10.7779,0,0,0,1.2071-5.7549V222.8746a8.57,8.57,0,0,0-.5567-3.3418,24.5207,24.5207,0,0,0-1.9492-3.4336,11.95,11.95,0,0,0-3.8057-3.62v-22.833h45.6661ZM598.6211,149.1773a27.81,27.81,0,0,1,14.8516,3.9912q6.495,3.9932,6.4961,11.2305A13.9121,13.9121,0,0,1,613.75,176.28a24.36,24.36,0,0,1-14.5723,4.4551,27.3965,27.3965,0,0,1-15.4072-4.27q-7.2406-4.8252-7.24-12.6231,0-7.0531,6.7754-10.8593A30.7473,30.7473,0,0,1,598.6211,149.1773Z"/><path class="cls-2" d="M646.1709,221.9468a7.6908,7.6908,0,0,0-.5566-2.8779,17.0233,17.0233,0,0,0-1.6709-3.0625,6.4945,6.4945,0,0,0-2.7842-2.4131v-24.69h42.14l2.4131,4.8271q4.8252-1.6713,11.7881-3.8984a42.5164,42.5164,0,0,1,12.9014-2.2275q16.7079,0,25.247,7.9824,8.5357,7.9835,8.5391,25.4316v46.4092q0,15.4116-9.6533,23.2051Q726.18,297.315,713,297.315a49.39,49.39,0,0,1-21.7187-4.8262,7.211,7.211,0,0,0-2.9708-.9287q-1.3007,0-1.2988,1.6709v10.9522a11.1308,11.1308,0,0,0,1.02,5.0127,5.47,5.47,0,0,0,3.62,2.7841v25.4327H641.7158V311.98a16.78,16.78,0,0,0,2.4131-1.1132,4.1392,4.1392,0,0,0,1.4854-2.878,49.26,49.26,0,0,0,.4638-6.6826q.0923-4.5513.0928-7.333Zm49.0088-6.3115h-4.8272c-1.3632,0-2.2275.249-2.5986.7422q-.7442.9317-.7422,5.3838v42.0459a6.2516,6.2516,0,0,0,.5567,3.0635q.3691,1.3008,2.413,1.2988h4.4551a8.9368,8.9368,0,0,0,6.3115-2.2275,7.8226,7.8226,0,0,0,2.32-4.084,24.6026,24.6026,0,0,0,.65-5.9405V226.4019a28.7311,28.7311,0,0,0-.3711-5.7549,6.7958,6.7958,0,0,0-2.6-3.249A8.6942,8.6942,0,0,0,695.18,215.6353Z"/><path class="cls-2" d="M436.4067,229.5914q0,10.5925-1.9069,16.8324-2.4858,8.15-7.8307,8.1461h-7.7306c-1.5311,0-2.5463-.45-3.0566-1.3573a10.0832,10.0832,0,0,1-.5707-3.801V211.8973l-49.6089-14.2v51.6832a17.67,17.67,0,0,1-.579,4.5951,26.8691,26.8691,0,0,1-1.6353,3.924,8.517,8.517,0,0,1-2.988,3.6453V297.5h90.55q17.3392,0,26.9713-15.95,8.4741-14.0562,8.4783-36.2221c0-4.3277-.0894-8.3422-.2616-12.0658L435.275,218.0553A53.9509,53.9509,0,0,1,436.4067,229.5914Z"/><path class="cls-2" d="M381.0494,130.4344a30.4189,30.4189,0,0,0-1.1864-8.949,53.6745,53.6745,0,0,0-2.7206-6.8241,30.2609,30.2609,0,0,0-2.6424-4.5931V95.5h74.5268c3.5605,0,8.33.8679,13.6558,7.6346,4.8549,6.17,7.2149,14.1273,7.2149,24.3255,0,16.4812-1.04,24.1936-1.9211,27.7977-1.9285,7.9783-7.3235,13.4938-11.4282,16.7607a20.9626,20.9626,0,0,0-2.2539,2.03l14.4124,4.3005q9.5148-5.925,12.8778-19.8025,2.313-9.4593,2.313-31.0868,0-20.0056-10.2124-32.9824Q463.4742,81.5029,449.0268,81.5H360.5v33.7919a15.5649,15.5649,0,0,1,3.9483,5.2737,40.8706,40.8706,0,0,1,2.0222,4.9989,17.0112,17.0112,0,0,1,.5789,4.87v17.7827l14,4.1774Z"/><polygon class="cls-2" points="360.5 166.002 360.5 175.401 486.5 212.998 486.5 203.599 360.5 166.002"/></g></g></svg>