<svg xmlns="http://www.w3.org/2000/svg" viewBox="0 0 220.12 377.76"><defs><style>.cls-1{fill:#5e698a;}</style></defs><g id="Layer_2" data-name="Layer 2"><g id="Letters"><polygon class="cls-1" points="220.12 214.59 0 148.91 0 165.33 220.12 231.01 220.12 214.59"/><path class="cls-1" d="M23,260.64a29.34,29.34,0,0,1-2.71,12.42,88.57,88.57,0,0,1-7.11,12.43Q8.81,292,0,297.27v80.49H220.12V297.27a42.88,42.88,0,0,1-13.89-12.76,85,85,0,0,1-7.11-12.1,29.27,29.27,0,0,1-2-11.77h0L23,208.7Z"/><path class="cls-1" d="M43.35,95.44a105.86,105.86,0,0,0-9.2-15.88,64,64,0,0,0-9.69-11.24V24.46h171.2V68.23a56.62,56.62,0,0,0-9,10.36,112.5,112.5,0,0,0-9.06,15.88,53.89,53.89,0,0,0-5,22.65v47l24.46,7.3V117.12a29.34,29.34,0,0,1,2.71-12.42,88.57,88.57,0,0,1,7.11-12.43q4.4-6.54,13.21-11.78V0H0V80.49A42.84,42.84,0,0,1,13.88,93.25,85.27,85.27,0,0,1,21,105.35c.31.72.6,6,.84,13.8l24.65,7.36C45.93,101.27,45.24,99.69,43.35,95.44Z"/></g></g></svg>